<svg width="377.4686767578125px" height="122px" xmlns="http://www.w3.org/2000/svg" viewBox="61.265661621093756 14 377.4686767578125 122" style="background: rgb(34, 112, 195);" preserveAspectRatio="xMidYMid"><defs><filter id="editing-hover" x="-100%" y="-100%" width="300%" height="300%"><feFlood flood-color="#052b4a" result="flood"></feFlood><feComposite operator="in" in2="SourceAlpha" in="flood" result="shadow"></feComposite><feOffset dx="-4" dy="-4" in="SourceGraphic" result="offset-1"></feOffset><feOffset dx="4" dy="4" in="shadow" result="offset-2"></feOffset><feMerge><feMergeNode in="offset-2"></feMergeNode><feMergeNode in="offset-1"></feMergeNode></feMerge></filter></defs><g filter="url(#editing-hover)"><g transform="translate(119.72498777508736, 104.44000244140625)"><path d="M0.45-0.32L0.45-0.32L8.51-42.24L8.51-42.24Q16.06-42.88 20.93-42.88L20.93-42.88L20.93-42.88Q25.79-42.88 28.93-42.46L28.93-42.46L28.93-42.46Q32.06-42.05 34.18-40.96L34.18-40.96L34.18-40.96Q38.40-38.91 38.40-33.28L38.40-33.28L38.40-33.28Q38.40-30.02 35.58-27.26L35.58-27.26L35.58-27.26Q32.96-24.77 30.08-24.19L30.08-24.19L30.08-24.19Q33.15-23.68 35.33-21.38L35.33-21.38L35.33-21.38Q37.63-18.94 37.63-15.17L37.63-15.17L37.63-15.17Q37.63-7.87 32.19-3.62L32.19-3.62L32.19-3.62Q26.75 0.64 16.06 0.64L16.06 0.64L16.06 0.64Q8.70 0.64 0.45-0.32ZM17.86-20.61L14.66-4.03L14.66-4.03Q15.23-3.97 15.36-3.97L15.36-3.97L15.94-3.97L15.94-3.97Q21.18-3.97 23.42-7.42L23.42-7.42L23.42-7.42Q25.09-10.11 25.09-15.04L25.09-15.04L25.09-15.04Q25.09-17.66 23.39-19.07L23.39-19.07L23.39-19.07Q21.70-20.48 17.86-20.61L17.86-20.61ZM27.58-33.22L27.58-33.22L27.58-33.22Q27.58-38.53 22.46-38.53L22.46-38.53L21.89-38.53L21.89-38.53Q21.63-38.53 21.25-38.46L21.25-38.46L18.69-24.96L19.33-24.96L19.33-24.96Q27.58-25.15 27.58-33.22ZM57.15-3.52L57.15-3.52L57.15-3.52Q55.17 1.28 48.83 1.28L48.83 1.28L48.83 1.28Q45.63 1.28 43.58-0.96L43.58-0.96L43.58-0.96Q41.92-2.82 41.92-4.93L41.92-4.93L41.92-4.93Q41.92-9.73 44.16-20.22L44.16-20.22L48.83-44.80L61.82-46.08L55.62-13.70L55.62-13.70Q54.53-8.96 54.53-7.30L54.53-7.30L54.53-7.30Q54.53-3.65 57.15-3.52ZM76.54 1.28L76.54 1.28L76.54 1.28Q62.46 1.28 62.46-11.97L62.46-11.97L62.46-11.97Q62.46-21.38 67.65-27.46L67.65-27.46L67.65-27.46Q73.15-33.92 82.69-33.92L82.69-33.92L82.69-33.92Q89.60-33.92 93.12-30.72L93.12-30.72L93.12-30.72Q96.64-27.52 96.64-20.80L96.64-20.80L96.64-20.80Q96.64-10.56 91.14-4.61L91.14-4.61L91.14-4.61Q85.76 1.28 76.54 1.28ZM78.21-26.56L78.21-26.56L78.21-26.56Q77.44-24.83 76.83-22.24L76.83-22.24L76.83-22.24Q76.22-19.65 75.46-15.55L75.46-15.55L75.46-15.55Q74.69-11.46 74.69-6.40L74.69-6.40L74.69-6.40Q74.69-4.74 75.23-3.65L75.23-3.65L75.23-3.65Q75.78-2.56 77.25-2.56L77.25-2.56L77.25-2.56Q78.72-2.56 79.65-3.26L79.65-3.26L79.65-3.26Q80.58-3.97 81.28-5.63L81.28-5.63L81.28-5.63Q82.56-8.58 83.58-14.05L83.58-14.05L83.58-14.05Q84.61-19.52 84.70-21.89L84.70-21.89L84.70-21.89Q84.80-24.26 84.80-26.02L84.80-26.02L84.80-26.02Q84.80-27.78 84.29-28.93L84.29-28.93L84.29-28.93Q83.78-30.08 82.34-30.08L82.34-30.08L82.34-30.08Q80.90-30.08 79.94-29.18L79.94-29.18L79.94-29.18Q78.98-28.29 78.21-26.56ZM104.96-26.75L104.96-26.75L104.96-26.75Q107.14-29.82 110.43-31.87L110.43-31.87L110.43-31.87Q113.73-33.92 117.76-33.92L117.76-33.92L117.76-33.92Q121.79-33.92 123.71-32.64L123.71-32.64L136.26-33.92L131.90-9.34L131.90-9.34Q129.66 3.20 124.93 8.13L124.93 8.13L124.93 8.13Q120.38 12.80 111.55 12.80L111.55 12.80L111.55 12.80Q104.83 12.80 100.99 10.69L100.99 10.69L100.99 10.69Q97.15 8.58 97.15 5.06L97.15 5.06L97.15 5.06Q97.15 2.43 99.14 0.93L99.14 0.93L99.14 0.93Q101.12-0.58 104.19-0.58L104.19-0.58L104.19-0.58Q106.88-0.58 108.93 0.64L108.93 0.64L108.93 0.64Q110.14 1.28 110.72 2.18L110.72 2.18L110.72 2.18Q109.25 3.46 109.25 5.57L109.25 5.57L109.25 5.57Q109.25 8.32 111.81 8.32L111.81 8.32L111.81 8.32Q116.10 8.32 118.53-1.79L118.53-1.79L118.53-1.79Q119.23-4.54 119.81-7.30L119.81-7.30L119.81-7.30Q116.93-3.78 110.40-3.78L110.40-3.78L110.40-3.78Q105.86-3.78 103.23-5.95L103.23-5.95L103.23-5.95Q100.61-8.13 100.61-13.25L100.61-13.25L100.61-13.25Q100.61-16.45 101.70-20.06L101.70-20.06L101.70-20.06Q102.78-23.68 104.96-26.75ZM113.28-13.06L113.28-13.06L113.28-13.06Q113.28-8.70 115.52-8.70L115.52-8.70L115.52-8.70Q117.06-8.70 118.53-10.37L118.53-10.37L118.53-10.37Q119.68-11.71 120.13-13.70L120.13-13.70L123.39-30.14L123.39-30.14Q123.07-30.21 122.75-30.34L122.75-30.34L122.75-30.34Q122.11-30.59 121.28-30.59L121.28-30.59L121.28-30.59Q117.38-30.59 115.07-24.19L115.07-24.19L115.07-24.19Q113.28-19.20 113.28-13.06ZM162.62-4.80L162.62-4.80L162.62-4.80Q162.62-9.28 164.42-18.24L164.42-18.24L154.94-18.24L151.42 0L138.05 0L146.18-42.24L159.68-42.24L155.97-23.36L165.44-23.36L168.96-42.24L182.46-42.24L182.46-42.24Q181.57-37.50 180.42-32.19L180.42-32.19L178.24-21.76L178.24-21.76Q175.81-9.60 175.81-4.29L175.81-4.29L175.81-4.29Q175.81-2.11 176.51-0.90L176.51-0.90L176.51-0.90Q173.31 1.28 169.57 1.28L169.57 1.28L169.57 1.28Q165.82 1.28 164.22-0.51L164.22-0.51L164.22-0.51Q162.62-2.30 162.62-4.80ZM204.54-2.69L204.54-2.69L204.54-2.69Q201.47 1.28 193.86 1.28L193.86 1.28L193.86 1.28Q189.89 1.28 187.01-1.12L187.01-1.12L187.01-1.12Q184.13-3.52 184.13-6.98L184.13-6.98L184.13-6.98Q184.13-8.90 184.32-9.86L184.32-9.86L188.61-32.64L201.60-33.92L196.93-9.22L196.93-9.22Q196.67-7.81 196.67-6.98L196.67-6.98L196.67-6.98Q196.67-3.26 198.91-3.26L198.91-3.26L198.91-3.26Q201.41-3.26 203.20-6.66L203.20-6.66L203.20-6.66Q203.78-7.74 204.03-9.15L204.03-9.15L208.58-32.64L221.18-33.92L216.45-8.96L216.45-8.96Q216.26-8 216.26-6.98L216.26-6.98L216.26-6.98Q216.26-5.95 216.83-4.83L216.83-4.83L216.83-4.83Q217.41-3.71 219.26-3.46L219.26-3.46L219.26-3.46Q218.88-1.92 217.54-0.90L217.54-0.90L217.54-0.90Q214.72 1.28 211.68 1.28L211.68 1.28L211.68 1.28Q208.64 1.28 206.85 0.19L206.85 0.19L206.85 0.19Q205.06-0.90 204.54-2.69ZM223.81-3.07L223.81-3.07L231.74-44.80L244.74-46.08L242.75-36.29L242.75-36.29Q242.05-33.28 241.15-31.17L241.15-31.17L241.15-31.17Q242.56-32.96 245.63-33.66L245.63-33.66L245.63-33.66Q246.53-33.92 247.62-33.92L247.62-33.92L247.62-33.92Q253.57-33.92 256.83-30.30L256.83-30.30L256.83-30.30Q260.10-26.69 260.10-19.71L260.10-19.71L260.10-19.71Q260.10-10.62 254.91-4.93L254.91-4.93L254.91-4.93Q249.34 1.28 239.23 1.28L239.23 1.28L239.23 1.28Q232.26 1.28 227.01-1.02L227.01-1.02L227.01-1.02Q225.15-1.86 223.81-3.07ZM240.06-22.40L236.67-3.65L236.67-3.65Q238.02-2.50 239.68-2.50L239.68-2.50L239.68-2.50Q241.34-2.50 242.30-3.14L242.30-3.14L242.30-3.14Q243.26-3.78 243.97-5.06L243.97-5.06L243.97-5.06Q245.89-8.51 247.42-19.07L247.42-19.07L247.42-19.07Q247.87-22.08 247.87-25.09L247.87-25.09L247.87-25.09Q247.87-28.10 247.20-29.06L247.20-29.06L247.20-29.06Q246.53-30.02 245.25-30.02L245.25-30.02L245.25-30.02Q241.34-30.02 240.06-22.40L240.06-22.40Z" fill="#ffd5af"></path></g></g><style>text {
  font-size: 64px;
  font-family: Arial Black;
  dominant-baseline: central;
  text-anchor: middle;
}</style></svg>